<?xml version="1.0" encoding="UTF-8" standalone="no"?>
<!DOCTYPE svg PUBLIC "-//W3C//DTD SVG 1.1//EN"
 "http://www.w3.org/Graphics/SVG/1.1/DTD/svg11.dtd">
<!-- Generated by graphviz version 12.2.1 (0)
 -->
<!-- Pages: 1 -->
<svg width="134pt" height="620pt"
 viewBox="0.00 0.00 134.00 620.00" xmlns="http://www.w3.org/2000/svg" xmlns:xlink="http://www.w3.org/1999/xlink">
<g id="graph0" class="graph" transform="scale(1 1) rotate(0) translate(4 616)">
<polygon fill="white" stroke="none" points="-4,4 -4,-616 130,-616 130,4 -4,4"/>
<!-- dac -->
<g id="node1" class="node">
<title>dac</title>
<ellipse fill="none" stroke="black" cx="99" cy="-234" rx="27" ry="18"/>
<text text-anchor="middle" x="99" y="-228.95" font-family="Times,serif" font-size="14.00">dac</text>
</g>
<!-- fff -->
<g id="node2" class="node">
<title>fff</title>
<ellipse fill="none" stroke="black" cx="63" cy="-162" rx="27" ry="18"/>
<text text-anchor="middle" x="63" y="-156.95" font-family="Times,serif" font-size="14.00">fff</text>
</g>
<!-- dac&#45;&gt;fff -->
<g id="edge1" class="edge">
<title>dac&#45;&gt;fff</title>
<path fill="none" stroke="black" d="M90.65,-216.76C86.42,-208.55 81.19,-198.37 76.42,-189.09"/>
<polygon fill="black" stroke="black" points="79.68,-187.79 72,-180.49 73.46,-190.99 79.68,-187.79"/>
</g>
<!-- ggg -->
<g id="node3" class="node">
<title>ggg</title>
<ellipse fill="none" stroke="black" cx="27" cy="-90" rx="27" ry="18"/>
<text text-anchor="middle" x="27" y="-84.95" font-family="Times,serif" font-size="14.00">ggg</text>
</g>
<!-- fff&#45;&gt;ggg -->
<g id="edge2" class="edge">
<title>fff&#45;&gt;ggg</title>
<path fill="none" stroke="black" d="M54.65,-144.76C50.42,-136.55 45.19,-126.37 40.42,-117.09"/>
<polygon fill="black" stroke="black" points="43.68,-115.79 36,-108.49 37.46,-118.99 43.68,-115.79"/>
</g>
<!-- hhh -->
<g id="node4" class="node">
<title>hhh</title>
<ellipse fill="none" stroke="black" cx="99" cy="-90" rx="27" ry="18"/>
<text text-anchor="middle" x="99" y="-84.95" font-family="Times,serif" font-size="14.00">hhh</text>
</g>
<!-- fff&#45;&gt;hhh -->
<g id="edge3" class="edge">
<title>fff&#45;&gt;hhh</title>
<path fill="none" stroke="black" d="M71.35,-144.76C75.58,-136.55 80.81,-126.37 85.58,-117.09"/>
<polygon fill="black" stroke="black" points="88.54,-118.99 90,-108.49 82.32,-115.79 88.54,-118.99"/>
</g>
<!-- out -->
<g id="node9" class="node">
<title>out</title>
<ellipse fill="none" stroke="black" cx="63" cy="-18" rx="27" ry="18"/>
<text text-anchor="middle" x="63" y="-12.95" font-family="Times,serif" font-size="14.00">out</text>
</g>
<!-- ggg&#45;&gt;out -->
<g id="edge7" class="edge">
<title>ggg&#45;&gt;out</title>
<path fill="none" stroke="black" d="M35.35,-72.76C39.58,-64.55 44.81,-54.37 49.58,-45.09"/>
<polygon fill="black" stroke="black" points="52.54,-46.99 54,-36.49 46.32,-43.79 52.54,-46.99"/>
</g>
<!-- hhh&#45;&gt;out -->
<g id="edge11" class="edge">
<title>hhh&#45;&gt;out</title>
<path fill="none" stroke="black" d="M90.65,-72.76C86.42,-64.55 81.19,-54.37 76.42,-45.09"/>
<polygon fill="black" stroke="black" points="79.68,-43.79 72,-36.49 73.46,-46.99 79.68,-43.79"/>
</g>
<!-- fft -->
<g id="node5" class="node">
<title>fft</title>
<ellipse fill="none" stroke="black" cx="27" cy="-450" rx="27" ry="18"/>
<text text-anchor="middle" x="27" y="-444.95" font-family="Times,serif" font-size="14.00">fft</text>
</g>
<!-- ccc -->
<g id="node6" class="node">
<title>ccc</title>
<ellipse fill="none" stroke="black" cx="63" cy="-378" rx="27" ry="18"/>
<text text-anchor="middle" x="63" y="-372.95" font-family="Times,serif" font-size="14.00">ccc</text>
</g>
<!-- fft&#45;&gt;ccc -->
<g id="edge4" class="edge">
<title>fft&#45;&gt;ccc</title>
<path fill="none" stroke="black" d="M35.35,-432.76C39.58,-424.55 44.81,-414.37 49.58,-405.09"/>
<polygon fill="black" stroke="black" points="52.54,-406.99 54,-396.49 46.32,-403.79 52.54,-406.99"/>
</g>
<!-- ddd -->
<g id="node7" class="node">
<title>ddd</title>
<ellipse fill="none" stroke="black" cx="27" cy="-306" rx="27" ry="18"/>
<text text-anchor="middle" x="27" y="-300.95" font-family="Times,serif" font-size="14.00">ddd</text>
</g>
<!-- ccc&#45;&gt;ddd -->
<g id="edge9" class="edge">
<title>ccc&#45;&gt;ddd</title>
<path fill="none" stroke="black" d="M54.65,-360.76C50.42,-352.55 45.19,-342.37 40.42,-333.09"/>
<polygon fill="black" stroke="black" points="43.68,-331.79 36,-324.49 37.46,-334.99 43.68,-331.79"/>
</g>
<!-- eee -->
<g id="node10" class="node">
<title>eee</title>
<ellipse fill="none" stroke="black" cx="99" cy="-306" rx="27" ry="18"/>
<text text-anchor="middle" x="99" y="-300.95" font-family="Times,serif" font-size="14.00">eee</text>
</g>
<!-- ccc&#45;&gt;eee -->
<g id="edge10" class="edge">
<title>ccc&#45;&gt;eee</title>
<path fill="none" stroke="black" d="M71.35,-360.76C75.58,-352.55 80.81,-342.37 85.58,-333.09"/>
<polygon fill="black" stroke="black" points="88.54,-334.99 90,-324.49 82.32,-331.79 88.54,-334.99"/>
</g>
<!-- hub -->
<g id="node8" class="node">
<title>hub</title>
<ellipse fill="none" stroke="black" cx="27" cy="-234" rx="27" ry="18"/>
<text text-anchor="middle" x="27" y="-228.95" font-family="Times,serif" font-size="14.00">hub</text>
</g>
<!-- ddd&#45;&gt;hub -->
<g id="edge5" class="edge">
<title>ddd&#45;&gt;hub</title>
<path fill="none" stroke="black" d="M27,-287.7C27,-280.41 27,-271.73 27,-263.54"/>
<polygon fill="black" stroke="black" points="30.5,-263.62 27,-253.62 23.5,-263.62 30.5,-263.62"/>
</g>
<!-- hub&#45;&gt;fff -->
<g id="edge6" class="edge">
<title>hub&#45;&gt;fff</title>
<path fill="none" stroke="black" d="M35.35,-216.76C39.58,-208.55 44.81,-198.37 49.58,-189.09"/>
<polygon fill="black" stroke="black" points="52.54,-190.99 54,-180.49 46.32,-187.79 52.54,-190.99"/>
</g>
<!-- eee&#45;&gt;dac -->
<g id="edge8" class="edge">
<title>eee&#45;&gt;dac</title>
<path fill="none" stroke="black" d="M99,-287.7C99,-280.41 99,-271.73 99,-263.54"/>
<polygon fill="black" stroke="black" points="102.5,-263.62 99,-253.62 95.5,-263.62 102.5,-263.62"/>
</g>
<!-- svr -->
<g id="node11" class="node">
<title>svr</title>
<ellipse fill="none" stroke="black" cx="63" cy="-594" rx="27" ry="18"/>
<text text-anchor="middle" x="63" y="-588.95" font-family="Times,serif" font-size="14.00">svr</text>
</g>
<!-- aaa -->
<g id="node12" class="node">
<title>aaa</title>
<ellipse fill="none" stroke="black" cx="27" cy="-522" rx="27" ry="18"/>
<text text-anchor="middle" x="27" y="-516.95" font-family="Times,serif" font-size="14.00">aaa</text>
</g>
<!-- svr&#45;&gt;aaa -->
<g id="edge12" class="edge">
<title>svr&#45;&gt;aaa</title>
<path fill="none" stroke="black" d="M54.65,-576.76C50.42,-568.55 45.19,-558.37 40.42,-549.09"/>
<polygon fill="black" stroke="black" points="43.68,-547.79 36,-540.49 37.46,-550.99 43.68,-547.79"/>
</g>
<!-- bbb -->
<g id="node13" class="node">
<title>bbb</title>
<ellipse fill="none" stroke="black" cx="99" cy="-522" rx="27" ry="18"/>
<text text-anchor="middle" x="99" y="-516.95" font-family="Times,serif" font-size="14.00">bbb</text>
</g>
<!-- svr&#45;&gt;bbb -->
<g id="edge13" class="edge">
<title>svr&#45;&gt;bbb</title>
<path fill="none" stroke="black" d="M71.35,-576.76C75.58,-568.55 80.81,-558.37 85.58,-549.09"/>
<polygon fill="black" stroke="black" points="88.54,-550.99 90,-540.49 82.32,-547.79 88.54,-550.99"/>
</g>
<!-- aaa&#45;&gt;fft -->
<g id="edge14" class="edge">
<title>aaa&#45;&gt;fft</title>
<path fill="none" stroke="black" d="M27,-503.7C27,-496.41 27,-487.73 27,-479.54"/>
<polygon fill="black" stroke="black" points="30.5,-479.62 27,-469.62 23.5,-479.62 30.5,-479.62"/>
</g>
<!-- tty -->
<g id="node14" class="node">
<title>tty</title>
<ellipse fill="none" stroke="black" cx="99" cy="-450" rx="27" ry="18"/>
<text text-anchor="middle" x="99" y="-444.95" font-family="Times,serif" font-size="14.00">tty</text>
</g>
<!-- bbb&#45;&gt;tty -->
<g id="edge15" class="edge">
<title>bbb&#45;&gt;tty</title>
<path fill="none" stroke="black" d="M99,-503.7C99,-496.41 99,-487.73 99,-479.54"/>
<polygon fill="black" stroke="black" points="102.5,-479.62 99,-469.62 95.5,-479.62 102.5,-479.62"/>
</g>
<!-- tty&#45;&gt;ccc -->
<g id="edge16" class="edge">
<title>tty&#45;&gt;ccc</title>
<path fill="none" stroke="black" d="M90.65,-432.76C86.42,-424.55 81.19,-414.37 76.42,-405.09"/>
<polygon fill="black" stroke="black" points="79.68,-403.79 72,-396.49 73.46,-406.99 79.68,-403.79"/>
</g>
</g>
</svg>
